<?xml version="1.0" encoding="UTF-8" standalone="no"?>
<svg
   xmlns:dc="http://purl.org/dc/elements/1.1/"
   xmlns:cc="http://creativecommons.org/ns#"
   xmlns:rdf="http://www.w3.org/1999/02/22-rdf-syntax-ns#"
   xmlns:svg="http://www.w3.org/2000/svg"
   xmlns="http://www.w3.org/2000/svg"
   width="243.77904"
   height="82.726814"
   viewBox="0 0 243.77903 82.72682"
   id="svg2"
   version="1.1">
  <defs
     id="defs4" />
  <metadata
     id="metadata7">
    <rdf:RDF>
      <cc:Work
         rdf:about="">
        <dc:format>image/svg+xml</dc:format>
        <dc:type
           rdf:resource="http://purl.org/dc/dcmitype/StillImage" />
        <dc:title></dc:title>
      </cc:Work>
    </rdf:RDF>
  </metadata>
  <path
     id="path4166"
     d="m 4.9999835,30.722882 q 0,-6.478354 2.0951896,-11.24185 2.2054629,-4.858766 5.6239299,-8.097946 3.528741,-3.2391776 7.939667,-4.7634964 4.521199,-1.6195887 9.262943,-1.6195887 10.475948,0 16.651244,5.9067351 6.285572,5.906738 6.285572,18.196557 0,0.76216 -0.110285,1.524319 0,0.76216 -0.110285,1.429049 l -40.029153,0 q 0.330819,9.050643 5.182838,13.909409 4.852018,4.858766 15.438239,4.858766 5.844476,0 9.262943,-0.952699 3.418468,-0.952699 4.962292,-1.619589 l 1.323281,5.335116 q -1.543803,0.76216 -5.844455,1.810129 -4.19038,1.047969 -9.924583,1.047969 -7.498573,0 -12.791684,-1.905398 Q 14.924566,52.634965 11.506099,49.205248 8.0876314,45.77553 6.5438074,41.107304 4.9999835,36.343808 4.9999835,30.722882 Z M 45.470226,26.816816 q -0.22054,-7.716864 -4.190379,-12.00401 -3.969834,-4.28715 -11.247861,-4.28715 -3.859559,0 -6.947207,1.333779 -2.977375,1.333779 -5.293111,3.62026 -2.205463,2.191208 -3.52874,5.144576 -1.213005,2.953368 -1.433552,6.192545 l 32.64085,0 z"
     style="font-variant:normal;font-weight:300;font-size:medium;font-family:Ubuntu;-inkscape-font-specification:Ubuntu-Light;writing-mode:lr-tb;fill:#ffffff;fill-opacity:1;fill-rule:nonzero;stroke:none" />
  <path
     id="path4168"
     d="M 68.848132,7.8580986 Q 72.046053,7.0959392 77.449437,6.14324 82.852821,5.1905408 90.682214,5.1905408 q 6.506115,0 10.806766,1.6195887 4.41093,1.6195887 6.94721,4.6682265 2.64655,2.95337 3.74929,7.145247 1.10273,4.191876 1.10273,9.241182 l 0,27.533008 -7.16776,0 0,-25.53234 q 0,-5.239845 -0.88218,-8.860102 -0.77191,-3.620257 -2.75683,-5.906736 -1.87464,-2.28648 -5.072565,-3.23918 -3.087648,-1.047969 -7.829393,-1.047969 -5.072564,0 -8.821851,0.47635 -3.639014,0.476349 -4.741745,0.857429 l 0,43.252548 -7.167754,0 0,-47.5396944 z"
     style="font-variant:normal;font-weight:300;font-size:medium;font-family:Ubuntu;-inkscape-font-specification:Ubuntu-Light;writing-mode:lr-tb;fill:#ffffff;fill-opacity:1;fill-rule:nonzero;stroke:none" />
  <path
     id="path4170"
     d="m 131.59355,7.8580986 q 3.19792,-0.7621594 8.6013,-1.7148586 5.40338,-0.9526992 13.23278,-0.9526992 6.50611,0 10.80677,1.6195887 4.41092,1.6195887 6.9472,4.6682265 2.64656,2.95337 3.74929,7.145247 1.10273,4.191876 1.10273,9.241182 l 0,27.533008 -7.16775,0 0,-25.53234 q 0,-5.239845 -0.88219,-8.860102 -0.77191,-3.620257 -2.75683,-5.906736 -1.87464,-2.28648 -5.07256,-3.23918 -3.08765,-1.047969 -7.82939,-1.047969 -5.07257,0 -8.82185,0.47635 -3.63902,0.476349 -4.74175,0.857429 l 0,43.252548 -7.16775,0 0,-47.5396944 z"
     style="font-variant:normal;font-weight:300;font-size:medium;font-family:Ubuntu;-inkscape-font-specification:Ubuntu-Light;writing-mode:lr-tb;fill:#ffffff;fill-opacity:1;fill-rule:nonzero;stroke:none" />
  <path
     id="path4172"
     d="m 190.9205,30.722882 q 0,-6.478354 2.09519,-11.24185 2.20547,-4.858766 5.62393,-8.097946 3.52875,-3.2391776 7.93967,-4.7634964 4.5212,-1.6195887 9.26294,-1.6195887 10.47595,0 16.65125,5.9067351 6.28557,5.906738 6.28557,18.196557 0,0.76216 -0.11029,1.524319 0,0.76216 -0.11028,1.429049 l -40.02915,0 q 0.33082,9.050643 5.18283,13.909409 4.85202,4.858766 15.43824,4.858766 5.84448,0 9.26295,-0.952699 3.41847,-0.952699 4.96229,-1.619589 l 1.32328,5.335116 q -1.5438,0.76216 -5.84445,1.810129 -4.19038,1.047969 -9.92459,1.047969 -7.49857,0 -12.79168,-1.905398 -5.29311,-1.905399 -8.71158,-5.335116 -3.41847,-3.429718 -4.96229,-8.097944 -1.54383,-4.763496 -1.54383,-10.384422 z m 40.47025,-3.906066 q -0.22054,-7.716864 -4.19038,-12.00401 -3.96983,-4.28715 -11.24786,-4.28715 -3.85956,0 -6.94721,1.333779 -2.97737,1.333779 -5.29311,3.62026 -2.20546,2.191208 -3.52874,5.144576 -1.21301,2.953368 -1.43355,6.192545 l 32.64085,0 z"
     style="font-variant:normal;font-weight:300;font-size:medium;font-family:Ubuntu;-inkscape-font-specification:Ubuntu-Light;writing-mode:lr-tb;fill:#ffffff;fill-opacity:1;fill-rule:nonzero;stroke:none" />
  <path
     id="path4175"
     d="m 10.760065,73.249259 q 0.838053,0 1.455565,-0.03811 0.639566,-0.05716 1.080646,-0.133374 l 0,-3.467729 q -0.242593,-0.09527 -0.77189,-0.190534 -0.529296,-0.114321 -1.455565,-0.114321 -0.529296,0 -1.1027003,0.07621 -0.5734043,0.05716 -1.0585926,0.285801 -0.4851883,0.209588 -0.7939445,0.590658 -0.3087562,0.381069 -0.3087562,1.009833 0,0.55255 0.1984861,0.933619 0.2205401,0.381069 0.5954584,0.60971 0.3969722,0.228642 0.9262686,0.342962 0.5513505,0.09527 1.2350245,0.09527 z m -0.132324,-9.183765 q 1.124755,0 1.896645,0.285802 0.793944,0.266749 1.279133,0.762138 0.485188,0.476337 0.705728,1.143208 0.22054,0.66687 0.22054,1.448062 l 0,6.211426 q -0.22054,0.05716 -0.639566,0.133374 -0.419026,0.05716 -0.970377,0.133374 -0.55135,0.07621 -1.235024,0.114321 -0.661621,0.05716 -1.367349,0.05716 -0.9042145,0 -1.676105,-0.171481 Q 8.0915295,74.011397 7.5181252,73.649381 6.9667749,73.268312 6.6359647,72.696709 6.3272085,72.106052 6.3272085,71.2677 q 0,-0.800246 0.3528642,-1.371849 0.3528642,-0.571604 0.9924306,-0.933619 0.6395664,-0.381069 1.521727,-0.55255 0.8821607,-0.171482 1.9186987,-0.171482 0.308757,0 0.639567,0.03811 0.352864,0.01905 0.66162,0.07621 0.33081,0.03811 0.551351,0.09527 0.242594,0.03811 0.330809,0.07621 l 0,-0.60971 q 0,-0.514444 -0.08822,-0.99078 -0.08822,-0.495389 -0.396972,-0.876458 -0.286702,-0.400123 -0.838052,-0.628764 -0.529296,-0.247695 -1.411457,-0.247695 -1.2570787,0 -1.874591,0.152427 -0.6175125,0.152428 -0.9042146,0.247695 L 7.5842872,64.48467 q 0.3749182,-0.152427 1.1468088,-0.285801 0.7939445,-0.133375 1.896645,-0.133375 z"
     style="font-variant:normal;font-weight:300;font-size:medium;font-family:Ubuntu;-inkscape-font-specification:Ubuntu-Light;writing-mode:lr-tb;fill:#ffffff;fill-opacity:1;fill-rule:nonzero;stroke:none" />
  <path
     id="path4177"
     d="m 37.048449,64.637098 q 0.639566,-0.152428 1.720213,-0.342962 1.080647,-0.190535 2.646482,-0.190535 1.301186,0 2.161293,0.323909 0.88216,0.323909 1.389403,0.933619 0.529296,0.590657 0.749836,1.429009 0.22054,0.838352 0.22054,1.848185 l 0,5.506448 -1.43351,0 0,-5.106326 q 0,-1.047939 -0.17642,-1.77197 -0.154375,-0.724032 -0.551351,-1.181315 -0.374918,-0.457282 -1.014484,-0.647817 -0.617513,-0.209588 -1.565835,-0.209588 -1.014485,0 -1.764321,0.09527 -0.727783,0.09527 -0.948323,0.171481 l 0,8.650268 -1.433511,0 0,-9.507673 z"
     style="font-variant:normal;font-weight:300;font-size:medium;font-family:Ubuntu;-inkscape-font-specification:Ubuntu-Light;writing-mode:lr-tb;fill:#ffffff;fill-opacity:1;fill-rule:nonzero;stroke:none" />
  <path
     id="path4179"
     d="m 71.849679,73.249259 q 0.838052,0 1.455565,-0.03811 0.639566,-0.05716 1.080646,-0.133374 l 0,-3.467729 q -0.242585,-0.09527 -0.77189,-0.190534 -0.529296,-0.114321 -1.455565,-0.114321 -0.529296,0 -1.102701,0.07621 -0.573404,0.05716 -1.058592,0.285801 -0.485189,0.209588 -0.793945,0.590658 -0.308756,0.381069 -0.308756,1.009833 0,0.55255 0.198495,0.933619 0.220541,0.381069 0.595459,0.60971 0.396972,0.228642 0.926268,0.342962 0.551351,0.09527 1.235025,0.09527 z m -0.13233,-9.183765 q 1.124754,0 1.896645,0.285802 0.793944,0.266749 1.279133,0.762138 0.485188,0.476337 0.705728,1.143208 0.22054,0.66687 0.22054,1.448062 l 0,6.211426 q -0.22054,0.05716 -0.639566,0.133374 -0.419027,0.05716 -0.970377,0.133374 -0.55135,0.07621 -1.235025,0.114321 -0.66162,0.05716 -1.367348,0.05716 -0.904215,0 -1.676105,-0.171481 -0.749837,-0.171481 -1.323241,-0.533497 -0.551351,-0.381069 -0.882161,-0.952672 -0.308756,-0.590657 -0.308756,-1.429009 0,-0.800246 0.352864,-1.371849 0.352864,-0.571604 0.992431,-0.933619 0.639566,-0.381069 1.521727,-0.55255 0.88216,-0.171482 1.918699,-0.171482 0.308756,0 0.639566,0.03811 0.352865,0.01905 0.661621,0.07621 0.33081,0.03811 0.55135,0.09527 0.242585,0.03811 0.33081,0.07621 l 0,-0.60971 q 0,-0.514444 -0.08821,-0.99078 -0.08821,-0.495389 -0.396972,-0.876458 -0.286705,-0.400123 -0.838052,-0.628764 -0.529297,-0.247695 -1.411457,-0.247695 -1.257079,0 -1.874591,0.152427 -0.617513,0.152428 -0.904215,0.247695 L 68.673892,64.48467 q 0.374918,-0.152427 1.146808,-0.285801 0.793945,-0.133375 1.896646,-0.133375 z"
     style="font-variant:normal;font-weight:300;font-size:medium;font-family:Ubuntu;-inkscape-font-specification:Ubuntu-Light;writing-mode:lr-tb;fill:#ffffff;fill-opacity:1;fill-rule:nonzero;stroke:none" />
  <path
     id="path4181"
     d="m 101.02714,74.316252 q -0.72778,-0.01905 -1.279131,-0.171481 -0.529297,-0.133374 -0.904215,-0.419176 -0.352864,-0.304855 -0.55135,-0.762138 -0.17642,-0.476336 -0.17642,-1.181314 l 0,-12.19421 1.433511,-0.228642 0,12.384745 q 0,0.457283 0.08821,0.743085 0.110285,0.266748 0.308756,0.438229 0.198499,0.152428 0.507239,0.228641 0.33081,0.07621 0.77189,0.133375 l -0.19849,1.028886 z"
     style="font-variant:normal;font-weight:300;font-size:medium;font-family:Ubuntu;-inkscape-font-specification:Ubuntu-Light;writing-mode:lr-tb;fill:#ffffff;fill-opacity:1;fill-rule:nonzero;stroke:none" />
  <path
     id="path4183"
     d="m 125.52915,74.354359 q -0.72778,-1.162261 -1.41145,-2.419789 -0.66162,-1.257528 -1.25708,-2.534109 -0.57341,-1.295635 -1.05859,-2.572216 -0.48519,-1.295635 -0.83806,-2.534109 l 1.52173,0 q 0.24258,0.914566 0.61751,1.981559 0.37492,1.04794 0.83805,2.172093 0.48519,1.124154 1.0586,2.305468 0.5734,1.181314 1.23502,2.324522 0.48519,-1.181314 0.86011,-2.229254 0.37492,-1.04794 0.68367,-2.076827 0.33081,-1.04794 0.61752,-2.133986 0.30875,-1.086047 0.63956,-2.343575 l 1.43351,0 q -0.70573,2.762751 -1.60994,5.373073 -0.90422,2.610324 -1.96281,4.782417 -0.41902,0.857406 -0.8601,1.467116 -0.44108,0.628764 -0.99243,1.028887 -0.5293,0.400122 -1.25708,0.590657 -0.70573,0.190534 -1.67611,0.190534 -0.55135,0 -1.01448,-0.11432 -0.44108,-0.114321 -0.55135,-0.171482 l 0.2867,-1.028886 q 0.0882,0.05716 0.48519,0.152428 0.41903,0.11432 0.86011,0.11432 0.61751,0 1.1027,-0.11432 0.50724,-0.114321 0.90421,-0.400123 0.39697,-0.266748 0.70573,-0.704978 0.33081,-0.438229 0.63957,-1.1051 z"
     style="font-variant:normal;font-weight:300;font-size:medium;font-family:Ubuntu;-inkscape-font-specification:Ubuntu-Light;writing-mode:lr-tb;fill:#ffffff;fill-opacity:1;fill-rule:nonzero;stroke:none" />
  <path
     id="path4185"
     d="m 152.87612,64.294136 4.54313,0 0,1.04794 -4.54313,0 0,5.239699 q 0,0.838352 0.15438,1.371849 0.17642,0.514443 0.48518,0.800245 0.30876,0.285802 0.74984,0.381069 0.44108,0.09527 0.97038,0.09527 0.90421,0 1.45556,-0.171481 0.55135,-0.190534 0.86011,-0.342962 l 0.35287,1.028886 q -0.30876,0.171482 -1.08065,0.400123 -0.77189,0.209588 -1.67611,0.209588 -1.05859,0 -1.78637,-0.228641 -0.70573,-0.247695 -1.14681,-0.724032 -0.41903,-0.495389 -0.59546,-1.219421 -0.17642,-0.724031 -0.17642,-1.714811 l 0,-9.069443 1.43351,-0.228642 0,3.124767 z"
     style="font-variant:normal;font-weight:300;font-size:medium;font-family:Ubuntu;-inkscape-font-specification:Ubuntu-Light;writing-mode:lr-tb;fill:#ffffff;fill-opacity:1;fill-rule:nonzero;stroke:none" />
  <path
     id="path4187"
     d="m 180.15694,74.144771 -1.43351,0 0,-9.850635 1.43351,0 0,9.850635 z m 0.33081,-12.822974 q 0,0.43823 -0.30875,0.704978 -0.30876,0.247695 -0.74984,0.247695 -0.44108,0 -0.74984,-0.247695 -0.30875,-0.266748 -0.30875,-0.704978 0,-0.438229 0.30875,-0.685924 0.30876,-0.266749 0.74984,-0.266749 0.44108,0 0.74984,0.266749 0.30875,0.247695 0.30875,0.685924 z"
     style="font-variant:normal;font-weight:300;font-size:medium;font-family:Ubuntu;-inkscape-font-specification:Ubuntu-Light;writing-mode:lr-tb;fill:#ffffff;fill-opacity:1;fill-rule:nonzero;stroke:none" />
  <path
     id="path4189"
     d="m 207.32749,74.354359 q -1.32324,0 -2.33773,-0.362016 -1.01448,-0.362015 -1.69816,-1.028886 -0.66162,-0.685924 -1.01448,-1.619544 -0.35286,-0.952672 -0.35286,-2.09588 0,-1.16226 0.35286,-2.114933 0.37492,-0.952672 1.05859,-1.638597 0.68368,-0.685924 1.65405,-1.04794 0.97038,-0.381069 2.18335,-0.381069 0.92627,0 1.72021,0.133375 0.816,0.133374 1.25708,0.342962 l -0.37492,1.066993 q -0.44108,-0.190534 -0.99243,-0.304855 -0.55135,-0.114321 -1.47762,-0.114321 -1.89664,0 -2.88907,1.066994 -0.97038,1.047939 -0.97038,2.991391 0,0.876459 0.22054,1.619544 0.22054,0.724031 0.70573,1.257528 0.50724,0.514443 1.27913,0.819298 0.79395,0.285802 1.9187,0.285802 0.92627,0 1.54378,-0.171481 0.63957,-0.190534 0.92627,-0.323909 l 0.30876,1.066994 q -0.39697,0.190534 -1.25708,0.362015 -0.83805,0.190535 -1.76432,0.190535 z"
     style="font-variant:normal;font-weight:300;font-size:medium;font-family:Ubuntu;-inkscape-font-specification:Ubuntu-Light;writing-mode:lr-tb;fill:#ffffff;fill-opacity:1;fill-rule:nonzero;stroke:none" />
  <path
     id="path4191"
     d="m 233.7482,73.268312 q 1.23502,0 2.02897,-0.342962 0.816,-0.362016 0.816,-1.200368 0,-0.400122 -0.15438,-0.685924 -0.13233,-0.285802 -0.46313,-0.514443 -0.33081,-0.228642 -0.88216,-0.43823 -0.5293,-0.209588 -1.32324,-0.495389 -0.63957,-0.228642 -1.21297,-0.457283 -0.57341,-0.247695 -1.01449,-0.55255 -0.44108,-0.323909 -0.70573,-0.762139 -0.26466,-0.438229 -0.26466,-1.066993 0,-1.200367 1.03654,-1.943452 1.05859,-0.743085 2.88908,-0.743085 1.16886,0 1.9187,0.171481 0.77189,0.171482 1.08064,0.304856 l -0.33081,1.1051 q -0.26466,-0.114321 -0.90421,-0.304855 -0.61751,-0.190535 -1.83049,-0.190535 -0.48518,0 -0.92626,0.09527 -0.41903,0.07621 -0.74984,0.266748 -0.33081,0.171481 -0.5293,0.457283 -0.19849,0.266748 -0.19849,0.666871 0,0.400122 0.17642,0.685924 0.17642,0.285801 0.50724,0.514443 0.35286,0.209588 0.83805,0.400122 0.50724,0.190535 1.14681,0.419176 0.66162,0.228642 1.25708,0.476337 0.61751,0.228641 1.08065,0.571603 0.46313,0.323909 0.74983,0.800245 0.28671,0.457283 0.28671,1.162261 0,1.333742 -1.16886,2.019666 -1.14681,0.685924 -3.15373,0.685924 -1.49967,0 -2.29362,-0.228641 -0.79394,-0.209588 -1.05859,-0.323909 l 0.37492,-1.124153 q 0.0662,0.03811 0.28671,0.133374 0.22054,0.07621 0.59545,0.190534 0.37492,0.09527 0.88216,0.171481 0.5293,0.07621 1.21297,0.07621 z"
     style="font-variant:normal;font-weight:300;font-size:medium;font-family:Ubuntu;-inkscape-font-specification:Ubuntu-Light;writing-mode:lr-tb;fill:#ffffff;fill-opacity:1;fill-rule:nonzero;stroke:none" />
</svg>
