<?xml version="1.0" encoding="UTF-8" standalone="no"?>
<svg
   xmlns:dc="http://purl.org/dc/elements/1.1/"
   xmlns:cc="http://creativecommons.org/ns#"
   xmlns:rdf="http://www.w3.org/1999/02/22-rdf-syntax-ns#"
   xmlns:svg="http://www.w3.org/2000/svg"
   xmlns="http://www.w3.org/2000/svg"
   version="1.1"
   id="svg2"
   viewBox="0 0 243.77903 82.72682"
   height="82.726814"
   width="243.77904">
  <defs
     id="defs4" />
  <metadata
     id="metadata7">
    <rdf:RDF>
      <cc:Work
         rdf:about="">
        <dc:format>image/svg+xml</dc:format>
        <dc:type
           rdf:resource="http://purl.org/dc/dcmitype/StillImage" />
        <dc:title></dc:title>
      </cc:Work>
    </rdf:RDF>
  </metadata>
  <g
     transform="matrix(0.6353851,0,0,0.6353851,-123.98448,-116.24228)"
     id="layer1">
    <g
       transform="matrix(1.2039809,0,0,1.0401732,-41.408545,-12.264009)"
       id="g4148">
      <g
         id="text4150"
         style="font-variant:normal;font-weight:300;font-size:35.86600113px;font-family:Ubuntu;-inkscape-font-specification:Ubuntu-Light;writing-mode:lr-tb;fill:#000000;fill-opacity:1;fill-rule:nonzero;stroke:none"
         transform="matrix(4.0191127,0,0,4.0191127,195.07381,271.49278)">
        <path
           id="path4166"
           d="m 1.9726301,-9.2892943 q 0,-2.4388877 0.681454,-4.2321877 0.71732,-1.829166 1.829166,-3.048611 1.1477121,-1.219444 2.5823521,-1.7933 1.4705061,-0.609722 3.0127438,-0.609722 3.40727,0 5.415766,2.223692 2.044363,2.223693 2.044363,6.8504067 0,0.286928 -0.03587,0.573856 0,0.286928 -0.03587,0.53799 l -13.0193589,0 q 0.107598,3.4072701 1.6857021,5.2364362 1.578104,1.829166 5.0212398,1.829166 1.900898,0 3.012744,-0.35866 1.111846,-0.35866 1.61397,-0.609722 l 0.430393,2.00849608 Q 15.709308,-0.39452601 14.310534,0 q -1.362908,0.39452601 -3.22794,0.39452601 -2.4388877,0 -4.1604558,-0.71732002 -1.721568,-0.71731999 -2.8334141,-2.00849609 -1.111846,-1.291176 -1.61397,-3.0486101 -0.502124,-1.7933 -0.502124,-3.9093941 z M 15.135452,-10.7598 q -0.07173,-2.905146 -1.362908,-4.519116 -1.291176,-1.613971 -3.658332,-1.613971 -1.2553097,0 -2.2595578,0.502124 -0.968382,0.502124 -1.721568,1.362909 -0.71732,0.824918 -1.147712,1.936764 -0.3945261,1.111846 -0.4662581,2.33129 l 10.6163359,0 z" />
        <path
           id="path4168"
           d="m 22.739044,-17.897135 q 1.040114,-0.286928 2.797548,-0.645588 1.757434,-0.35866 4.30392,-0.35866 2.116094,0 3.514868,0.609722 1.43464,0.609722 2.259558,1.757434 0.860784,1.111847 1.219444,2.689951 0.35866,1.578104 0.35866,3.479002 l 0,10.365274 -2.33129,0 0,-9.6120883 q 0,-1.9726297 -0.286928,-3.3355377 -0.251062,-1.362908 -0.89665,-2.223692 -0.609722,-0.860785 -1.649836,-1.219445 -1.004248,-0.394526 -2.546486,-0.394526 -1.649836,0 -2.86928,0.17933 -1.183578,0.17933 -1.542238,0.322794 l 0,16.283165 -2.33129,0 0,-17.897135 z" />
        <path
           id="path4170"
           d="m 43.146797,-17.897135 q 1.040114,-0.286928 2.797548,-0.645588 1.757434,-0.35866 4.30392,-0.35866 2.116094,0 3.514868,0.609722 1.43464,0.609722 2.259558,1.757434 0.860784,1.111847 1.219444,2.689951 0.35866,1.578104 0.35866,3.479002 l 0,10.365274 -2.33129,0 0,-9.6120883 q 0,-1.9726297 -0.286928,-3.3355377 -0.251062,-1.362908 -0.89665,-2.223692 -0.609722,-0.860785 -1.649836,-1.219445 -1.004248,-0.394526 -2.546486,-0.394526 -1.649836,0 -2.86928,0.17933 -1.183578,0.17933 -1.542238,0.322794 l 0,16.283165 -2.33129,0 0,-17.897135 z" />
        <path
           id="path4172"
           d="m 62.442708,-9.2892943 q 0,-2.4388877 0.681454,-4.2321877 0.71732,-1.829166 1.829166,-3.048611 1.147712,-1.219444 2.582352,-1.7933 1.470506,-0.609722 3.012744,-0.609722 3.40727,0 5.415766,2.223692 2.044362,2.223693 2.044362,6.8504067 0,0.286928 -0.03587,0.573856 0,0.286928 -0.03587,0.53799 l -13.019358,0 q 0.107598,3.4072701 1.685702,5.2364362 1.578104,1.829166 5.02124,1.829166 1.900898,0 3.012744,-0.35866 1.111846,-0.35866 1.61397,-0.609722 l 0.430392,2.00849608 Q 76.179386,-0.39452601 74.780612,0 q -1.362908,0.39452601 -3.22794,0.39452601 -2.438888,0 -4.160456,-0.71732002 -1.721568,-0.71731999 -2.833414,-2.00849609 -1.111846,-1.291176 -1.61397,-3.0486101 -0.502124,-1.7933 -0.502124,-3.9093941 z M 75.60553,-10.7598 q -0.07173,-2.905146 -1.362908,-4.519116 -1.291176,-1.613971 -3.658332,-1.613971 -1.25531,0 -2.259558,0.502124 -0.968382,0.502124 -1.721568,1.362909 -0.71732,0.824918 -1.147712,1.936764 -0.394526,1.111846 -0.466258,2.33129 l 10.616336,0 z" />
      </g>
      <g
         id="text4154"
         style="font-variant:normal;font-weight:300;font-size:7.17299986px;font-family:Ubuntu;-inkscape-font-specification:Ubuntu-Light;writing-mode:lr-tb;fill:#000000;fill-opacity:1;fill-rule:nonzero;stroke:none"
         transform="matrix(4.0191127,0,0,4.0191127,203.35319,299.85816)">
        <path
           id="path4175"
           d="m 1.786077,-0.33713099 q 0.272574,0 0.473418,-0.014346 0.208017,-0.021519 0.3514769,-0.050211 l 0,-1.30548601 Q 2.532069,-1.743039 2.359917,-1.778904 2.187765,-1.821942 1.886499,-1.821942 q -0.172152,0 -0.35865,0.028692 -0.186498,0.021519 -0.344304,0.107595 -0.157806,0.078903 -0.25822802,0.222363 -0.100422,0.14346 -0.100422,0.380169 0,0.20801702 0.064557,0.35147701 0.07173,0.14346 0.19367102,0.229536 0.129114,0.086076 0.301266,0.129114 0.179325,0.035865 0.401688,0.035865 z M 1.743039,-3.7945169 q 0.365823,0 0.616878,0.107595 0.2582279,0.100422 0.4160339,0.28692 0.157806,0.179325 0.229536,0.43038 0.07173,0.251055 0.07173,0.5451479 l 0,2.338398 q -0.07173,0.021519 -0.208017,0.050211 -0.136287,0.021519 -0.315612,0.050211 Q 2.374263,0.043038 2.1519,0.057384 1.93671,0.078903 1.707174,0.078903 q -0.294093,0 -0.545148,-0.064557 -0.24388202,-0.064557 -0.43038001,-0.200844 -0.179325,-0.14345999 -0.28692,-0.35864999 -0.100422,-0.22236299 -0.100422,-0.53797501 0,-0.301266 0.114768,-0.516456 0.114768,-0.21519 0.32278499,-0.351477 0.208017,-0.14346 0.49493702,-0.208017 0.28692,-0.064557 0.624051,-0.064557 0.100422,0 0.208017,0.014346 0.114768,0.00717 0.21519,0.028692 0.107595,0.014346 0.179325,0.035865 0.078903,0.014346 0.1075949,0.028692 l 0,-0.229536 q 0,-0.193671 -0.028692,-0.3729959 -0.028692,-0.186498 -0.1291139,-0.329958 -0.093249,-0.150633 -0.272574,-0.236709 -0.172152,-0.093249 -0.459072,-0.093249 -0.408861,0 -0.609705,0.057384 -0.20084402,0.057384 -0.29409302,0.093249 l -0.064557,-0.408861 q 0.12194099,-0.057384 0.37299602,-0.107595 0.258228,-0.050211 0.616878,-0.050211 z" />
        <path
           id="path4177"
           d="m 10.336293,-3.5793269 q 0.208017,-0.057384 0.559494,-0.129114 0.351477,-0.07173 0.86076,-0.07173 0.423207,0 0.702954,0.121941 0.28692,0.121941 0.451899,0.351477 0.172152,0.222363 0.243882,0.537975 0.07173,0.3156119 0.07173,0.6957809 l 0,2.072997 -0.466245,0 0,-1.922364 q 0,-0.394515 -0.05738,-0.6670889 -0.05021,-0.272574 -0.179325,-0.444726 -0.121941,-0.172152 -0.329958,-0.243882 -0.200844,-0.078903 -0.509283,-0.078903 -0.329958,0 -0.57384,0.035865 -0.236709,0.035865 -0.308439,0.064557 l 0,3.2565419 -0.466245,0 0,-3.5793269 z" />
        <path
           id="path4179"
           d="m 21.655286,-0.33713099 q 0.272574,0 0.473418,-0.014346 0.208017,-0.021519 0.351477,-0.050211 l 0,-1.30548601 q -0.0789,-0.035865 -0.251055,-0.07173 -0.172152,-0.043038 -0.473418,-0.043038 -0.172152,0 -0.35865,0.028692 -0.186498,0.021519 -0.344304,0.107595 -0.157806,0.078903 -0.258228,0.222363 -0.100422,0.14346 -0.100422,0.380169 0,0.20801702 0.06456,0.35147701 0.07173,0.14346 0.193671,0.229536 0.129114,0.086076 0.301266,0.129114 0.179325,0.035865 0.401688,0.035865 z m -0.04304,-3.45738591 q 0.365823,0 0.616878,0.107595 0.258228,0.100422 0.416034,0.28692 0.157806,0.179325 0.229536,0.43038 0.07173,0.251055 0.07173,0.5451479 l 0,2.338398 q -0.07173,0.021519 -0.208017,0.050211 -0.136287,0.021519 -0.315612,0.050211 -0.179325,0.028692 -0.401688,0.043038 -0.21519,0.021519 -0.444726,0.021519 -0.294093,0 -0.545148,-0.064557 -0.243882,-0.064557 -0.43038,-0.200844 -0.179325,-0.14345999 -0.28692,-0.35864999 -0.100422,-0.22236299 -0.100422,-0.53797501 0,-0.301266 0.114768,-0.516456 0.114768,-0.21519 0.322785,-0.351477 0.208017,-0.14346 0.494937,-0.208017 0.28692,-0.064557 0.624051,-0.064557 0.100422,0 0.208017,0.014346 0.114768,0.00717 0.21519,0.028692 0.107595,0.014346 0.179325,0.035865 0.0789,0.014346 0.107595,0.028692 l 0,-0.229536 q 0,-0.193671 -0.02869,-0.3729959 -0.02869,-0.186498 -0.129114,-0.329958 -0.09325,-0.150633 -0.272574,-0.236709 -0.172152,-0.093249 -0.459072,-0.093249 -0.408861,0 -0.609705,0.057384 -0.200844,0.057384 -0.294093,0.093249 l -0.06456,-0.408861 q 0.121941,-0.057384 0.372996,-0.107595 0.258228,-0.050211 0.616878,-0.050211 z" />
        <path
           id="path4181"
           d="M 31.145166,0.064557 Q 30.908457,0.057384 30.729132,0 30.55698,-0.050211 30.435039,-0.157806 q -0.114768,-0.11476799 -0.179325,-0.28691999 -0.05738,-0.179325 -0.05738,-0.44472599 l 0,-4.59071992 0.466245,-0.086076 0,4.66244992 q 0,0.17215199 0.02869,0.27974699 0.03587,0.100422 0.100422,0.164979 0.06456,0.057384 0.164979,0.086076 0.107595,0.028692 0.251055,0.050211 L 31.145166,0.064557 Z" />
        <path
           id="path4183"
           d="M 39.11437,0.078903 Q 38.877661,-0.35864999 38.655298,-0.83206798 38.440108,-1.305486 38.246437,-1.786077 q -0.186498,-0.487764 -0.344304,-0.9683549 -0.157806,-0.487764 -0.272574,-0.954009 l 0.494937,0 q 0.0789,0.344304 0.200844,0.745992 0.121941,0.394515 0.272574,0.8177219 0.157806,0.423207 0.344304,0.867933 0.186498,0.44472602 0.401688,0.87510601 0.157806,-0.44472599 0.279747,-0.83924101 0.121941,-0.394515 0.222363,-0.781857 0.107595,-0.394515 0.200844,-0.8033759 0.100422,-0.408861 0.208017,-0.882279 l 0.466245,0 q -0.229536,1.040085 -0.523629,2.0227859 -0.294093,0.98270101 -0.638397,1.800423 -0.136287,0.32278499 -0.279747,0.55232099 -0.14346,0.23670899 -0.322785,0.38734201 -0.172152,0.150633 -0.408861,0.222363 -0.229536,0.07173 -0.545148,0.07173 -0.179325,0 -0.329958,-0.043038 -0.14346,-0.043038 -0.179325,-0.064557 l 0.09325,-0.38734202 q 0.02869,0.021519 0.157806,0.057384 0.136287,0.043038 0.279747,0.043038 0.200844,0 0.35865,-0.043038 0.164979,-0.043038 0.294093,-0.15063299 0.129114,-0.100422 0.229536,-0.265401 0.107595,-0.164979 0.208017,-0.41603399 z" />
        <path
           id="path4185"
           d="m 48.008887,-3.7084409 1.477638,0 0,0.394515 -1.477638,0 0,1.9725749 q 0,0.315612 0.05021,0.51645602 0.05738,0.19367099 0.157806,0.30126599 0.100422,0.107595 0.243882,0.14346 0.14346,0.035865 0.315612,0.035865 0.294093,0 0.473418,-0.064557 0.179325,-0.07173 0.279747,-0.129114 L 49.644331,-0.150633 Q 49.543909,-0.086076 49.292854,0 q -0.251055,0.078903 -0.545148,0.078903 -0.344304,0 -0.581013,-0.086076 -0.229536,-0.093249 -0.372996,-0.27257399 -0.136287,-0.186498 -0.193671,-0.459072 -0.05738,-0.27257401 -0.05738,-0.64557001 l 0,-3.4143479 0.466245,-0.086076 0,1.176372 z" />
        <path
           id="path4187"
           d="m 56.88189,0 -0.466245,0 0,-3.7084409 0.466245,0 0,3.7084409 z m 0.107595,-4.8274289 q 0,0.164979 -0.100422,0.265401 -0.100422,0.093249 -0.243882,0.093249 -0.14346,0 -0.243882,-0.093249 -0.100422,-0.100422 -0.100422,-0.265401 0,-0.164979 0.100422,-0.258228 0.100422,-0.100422 0.243882,-0.100422 0.14346,0 0.243882,0.100422 0.100422,0.093249 0.100422,0.258228 z" />
        <path
           id="path4189"
           d="m 65.719027,0.078903 q -0.43038,0 -0.760338,-0.136287 -0.329958,-0.136287 -0.552321,-0.38734199 -0.21519,-0.258228 -0.329958,-0.60970501 -0.114768,-0.35865 -0.114768,-0.78903 0,-0.437553 0.114768,-0.7962029 0.121941,-0.35865 0.344304,-0.616878 0.222363,-0.258228 0.537975,-0.394515 0.315612,-0.14346 0.710127,-0.14346 0.301266,0 0.559494,0.050211 0.265401,0.050211 0.408861,0.129114 l -0.121941,0.401688 q -0.14346,-0.07173 -0.322785,-0.114768 -0.179325,-0.043038 -0.480591,-0.043038 -0.616878,0 -0.939663,0.401688 -0.315612,0.394515 -0.315612,1.1261609 0,0.329958 0.07173,0.609705 0.07173,0.27257402 0.229536,0.47341801 0.164979,0.193671 0.416034,0.308439 0.258228,0.107595 0.624051,0.107595 0.301266,0 0.50211,-0.064557 0.208017,-0.07173 0.301266,-0.121941 l 0.100422,0.40168799 q -0.129114,0.07173 -0.408861,0.136287 -0.272574,0.07173 -0.57384,0.07173 z" />
        <path
           id="path4191"
           d="m 74.312282,-0.32995799 q 0.401688,0 0.659916,-0.129114 0.265401,-0.136287 0.265401,-0.45189899 0,-0.15063302 -0.05021,-0.25822802 -0.04304,-0.107595 -0.150633,-0.193671 -0.107595,-0.086076 -0.28692,-0.164979 -0.172152,-0.078903 -0.43038,-0.186498 -0.208017,-0.086076 -0.394515,-0.172152 -0.186498,-0.093249 -0.329958,-0.208017 -0.14346,-0.121941 -0.229536,-0.28692 -0.08608,-0.1649789 -0.08608,-0.4016879 0,-0.451899 0.337131,-0.731646 0.344304,-0.279747 0.939663,-0.279747 0.380169,0 0.624051,0.064557 0.251055,0.064557 0.351477,0.114768 l -0.107595,0.416034 q -0.08608,-0.043038 -0.294093,-0.114768 -0.200844,-0.07173 -0.595359,-0.07173 -0.157806,0 -0.301266,0.035865 -0.136287,0.028692 -0.243882,0.100422 -0.107595,0.064557 -0.172152,0.172152 -0.06456,0.100422 -0.06456,0.251055 0,0.150633 0.05738,0.258228 0.05738,0.1075949 0.164979,0.1936709 0.114768,0.078903 0.272574,0.150633 0.164979,0.07173 0.372996,0.157806 0.21519,0.086076 0.408861,0.179325 0.200844,0.086076 0.351477,0.21519 0.150633,0.121941 0.243882,0.301266 0.09325,0.172152 0.09325,0.43755302 0,0.50210999 -0.380169,0.76033798 -0.372996,0.258228 -1.025739,0.258228 -0.487764,0 -0.745992,-0.086076 -0.258228,-0.078903 -0.344304,-0.121941 l 0.121941,-0.42320699 q 0.02152,0.014346 0.09325,0.050211 0.07173,0.028692 0.193671,0.07173 0.121941,0.035865 0.28692,0.064557 0.172152,0.028692 0.394515,0.028692 z" />
      </g>
    </g>
  </g>
</svg>
