<svg xmlns="http://www.w3.org/2000/svg" width="1632" height="1088"><path d="M779,508L807,438L706,419Z" fill="#756d54" stroke="#756d54" stroke-width="1.51"/><path d="M706,419L685,557L779,508Z" fill="#776d53" stroke="#776d53" stroke-width="1.51"/><path d="M807,438L853,294L706,419Z" fill="#6c6857" stroke="#6c6857" stroke-width="1.51"/><path d="M948,579L916,367L807,438Z" fill="#86754e" stroke="#86754e" stroke-width="1.51"/><path d="M916,367L853,294L807,438Z" fill="#726b55" stroke="#726b55" stroke-width="1.51"/><path d="M706,419L516,500L685,557Z" fill="#6b6857" stroke="#6b6857" stroke-width="1.51"/><path d="M853,294L621,286L706,419Z" fill="#5a615c" stroke="#5a615c" stroke-width="1.51"/><path d="M779,508L948,579L807,438Z" fill="#89764d" stroke="#89764d" stroke-width="1.51"/><path d="M825,694L948,579L779,508Z" fill="#987e47" stroke="#987e47" stroke-width="1.51"/><path d="M496,346L516,500L706,419Z" fill="#555e5d" stroke="#555e5d" stroke-width="1.51"/><path d="M685,557L825,694L779,508Z" fill="#8c784c" stroke="#8c784c" stroke-width="1.51"/><path d="M649,690L825,694L685,557Z" fill="#917a4a" stroke="#917a4a" stroke-width="1.51"/><path d="M516,500L649,690L685,557Z" fill="#796e53" stroke="#796e53" stroke-width="1.51"/><path d="M621,286L496,346L706,419Z" fill="#4b5b5f" stroke="#4b5b5f" stroke-width="1.51"/><path d="M853,294L713,86L621,286Z" fill="#4e5c5f" stroke="#4e5c5f" stroke-width="1.51"/><path d="M916,367L947,260L853,294Z" fill="#6d6956" stroke="#6d6956" stroke-width="1.51"/><path d="M1113,364L947,260L916,367Z" fill="#7d7151" stroke="#7d7151" stroke-width="1.51"/><path d="M535,296L496,346L621,286Z" fill="#385463" stroke="#385463" stroke-width="1.51"/><path d="M825,694L913,692L948,579Z" fill="#a78640" stroke="#a78640" stroke-width="1.51"/><path d="M516,500L546,721L649,690Z" fill="#7c7051" stroke="#7c7051" stroke-width="1.51"/><path d="M649,690L670,794L825,694Z" fill="#9d8145" stroke="#9d8145" stroke-width="1.51"/><path d="M825,694L938,850L913,692Z" fill="#b68e38" stroke="#b68e38" stroke-width="1.51"/><path d="M546,721L670,794L649,690Z" fill="#937c49" stroke="#937c49" stroke-width="1.51"/><path d="M947,260L939,146L853,294Z" fill="#696758" stroke="#696758" stroke-width="1.51"/><path d="M621,286L551,147L535,296Z" fill="#325364" stroke="#325364" stroke-width="1.51"/><path d="M939,146L810,94L853,294Z" fill="#63645a" stroke="#63645a" stroke-width="1.51"/><path d="M535,296L365,262L496,346Z" fill="#204f67" stroke="#204f67" stroke-width="1.51"/><path d="M713,86L551,147L621,286Z" fill="#3d5662" stroke="#3d5662" stroke-width="1.51"/><path d="M810,94L713,86L853,294Z" fill="#58605c" stroke="#58605c" stroke-width="1.51"/><path d="M948,579L1113,364L916,367Z" fill="#8f7a4b" stroke="#8f7a4b" stroke-width="1.51"/><path d="M947,260L1109,260L939,146Z" fill="#746c54" stroke="#746c54" stroke-width="1.51"/><path d="M1150,571L1113,364L948,579Z" fill="#a48442" stroke="#a48442" stroke-width="1.51"/><path d="M670,794L788,848L825,694Z" fill="#ab893e" stroke="#ab893e" stroke-width="1.51"/><path d="M1113,364L1109,260L947,260Z" fill="#7f7150" stroke="#7f7150" stroke-width="1.51"/><path d="M516,500L407,706L546,721Z" fill="#736c54" stroke="#736c54" stroke-width="1.51"/><path d="M325,434L360,589L516,500Z" fill="#545e5d" stroke="#545e5d" stroke-width="1.51"/><path d="M325,434L516,500L496,346Z" fill="#425861" stroke="#425861" stroke-width="1.51"/><path d="M1120,727L1150,571L948,579Z" fill="#b88f36" stroke="#b88f36" stroke-width="1.51"/><path d="M1113,364L1293,259L1109,260Z" fill="#8d784b" stroke="#8d784b" stroke-width="1.51"/><path d="M1120,727L948,579L913,692Z" fill="#b58e39" stroke="#b58e39" stroke-width="1.51"/><path d="M546,721L477,860L670,794Z" fill="#957d48" stroke="#957d48" stroke-width="1.51"/><path d="M628,1026L825,975L788,848Z" fill="#af8a3b" stroke="#af8a3b" stroke-width="1.51"/><path d="M360,589L407,706L516,500Z" fill="#656658" stroke="#656658" stroke-width="1.51"/><path d="M365,262L325,434L496,346Z" fill="#2d5165" stroke="#2d5165" stroke-width="1.51"/><path d="M551,147L365,262L535,296Z" fill="#1a4e67" stroke="#1a4e67" stroke-width="1.51"/><path d="M788,848L938,850L825,694Z" fill="#b99036" stroke="#b99036" stroke-width="1.51"/><path d="M1068,807L1120,727L913,692Z" fill="#c5962d" stroke="#c5962d" stroke-width="1.51"/><path d="M1229,668L1208,500L1150,571Z" fill="#bd9233" stroke="#bd9233" stroke-width="1.51"/><path d="M1150,571L1208,500L1113,364Z" fill="#aa883e" stroke="#aa883e" stroke-width="1.51"/><path d="M938,850L1068,807L913,692Z" fill="#c5962d" stroke="#c5962d" stroke-width="1.51"/><path d="M419,830L477,860L546,721Z" fill="#8e794b" stroke="#8e794b" stroke-width="1.51"/><path d="M788,848L825,975L938,850Z" fill="#bc9134" stroke="#bc9134" stroke-width="1.51"/><path d="M810,94L863,-27L713,86Z" fill="#58605c" stroke="#58605c" stroke-width="1.51"/><path d="M713,86L526,-19L551,147Z" fill="#375463" stroke="#375463" stroke-width="1.51"/><path d="M939,146L863,-27L810,94Z" fill="#63645a" stroke="#63645a" stroke-width="1.51"/><path d="M992,-86L863,-27L939,146Z" fill="#6b6857" stroke="#6b6857" stroke-width="1.51"/><path d="M407,706L419,830L546,721Z" fill="#82734f" stroke="#82734f" stroke-width="1.51"/><path d="M272,803L419,830L407,706Z" fill="#85754e" stroke="#85754e" stroke-width="1.51"/><path d="M1208,500L1270,419L1113,364Z" fill="#a48541" stroke="#a48541" stroke-width="1.51"/><path d="M1109,260L1131,83L939,146Z" fill="#7c7052" stroke="#7c7052" stroke-width="1.51"/><path d="M1388,593L1270,419L1208,500Z" fill="#b18b3a" stroke="#b18b3a" stroke-width="1.51"/><path d="M1120,727L1229,668L1150,571Z" fill="#c8982b" stroke="#c8982b" stroke-width="1.51"/><path d="M1215,818L1229,668L1120,727Z" fill="#d7a01c" stroke="#d7a01c" stroke-width="1.51"/><path d="M628,1026L788,848L670,794Z" fill="#a9873f" stroke="#a9873f" stroke-width="1.51"/><path d="M938,850L1059,991L1068,807Z" fill="#d09c24" stroke="#d09c24" stroke-width="1.51"/><path d="M360,589L266,719L407,706Z" fill="#736c55" stroke="#736c55" stroke-width="1.51"/><path d="M325,434L233,543L360,589Z" fill="#575f5d" stroke="#575f5d" stroke-width="1.51"/><path d="M226,377L233,543L325,434Z" fill="#485a60" stroke="#485a60" stroke-width="1.51"/><path d="M640,-85L526,-19L713,86Z" fill="#3d5662" stroke="#3d5662" stroke-width="1.51"/><path d="M551,147L340,59L365,262Z" fill="#094c68" stroke="#094c68" stroke-width="1.51"/><path d="M365,262L226,377L325,434Z" fill="#305264" stroke="#305264" stroke-width="1.51"/><path d="M196,201L226,377L365,262Z" fill="#0e4c68" stroke="#0e4c68" stroke-width="1.51"/><path d="M1290,124L1131,83L1109,260Z" fill="#8a774c" stroke="#8a774c" stroke-width="1.51"/><path d="M233,543L266,719L360,589Z" fill="#696758" stroke="#696758" stroke-width="1.51"/><path d="M863,-27L640,-85L713,86Z" fill="#505d5e" stroke="#505d5e" stroke-width="1.51"/><path d="M416,1030L477,947L265,949Z" fill="#8b784c" stroke="#8b784c" stroke-width="1.51"/><path d="M419,830L477,947L477,860Z" fill="#8c784b" stroke="#8c784b" stroke-width="1.51"/><path d="M477,860L628,1026L670,794Z" fill="#9c8045" stroke="#9c8045" stroke-width="1.51"/><path d="M378,-14L340,59L526,-19Z" fill="#094c68" stroke="#094c68" stroke-width="1.51"/><path d="M526,-19L340,59L551,147Z" fill="#164d67" stroke="#164d67" stroke-width="1.51"/><path d="M1270,419L1293,259L1113,364Z" fill="#977e47" stroke="#977e47" stroke-width="1.51"/><path d="M477,947L628,1026L477,860Z" fill="#957d48" stroke="#957d48" stroke-width="1.51"/><path d="M1229,668L1361,640L1208,500Z" fill="#c19430" stroke="#c19430" stroke-width="1.51"/><path d="M1270,419L1367,291L1293,259Z" fill="#937b49" stroke="#937b49" stroke-width="1.51"/><path d="M1068,807L1215,818L1120,727Z" fill="#d9a21a" stroke="#d9a21a" stroke-width="1.51"/><path d="M1059,991L1215,818L1068,807Z" fill="#dba216" stroke="#dba216" stroke-width="1.51"/><path d="M266,719L272,803L407,706Z" fill="#7f7150" stroke="#7f7150" stroke-width="1.51"/><path d="M86,728L272,803L266,719Z" fill="#807250" stroke="#807250" stroke-width="1.51"/><path d="M1131,83L992,-86L939,146Z" fill="#776e53" stroke="#776e53" stroke-width="1.51"/><path d="M863,-27L826,-212L640,-85Z" fill="#555f5d" stroke="#555f5d" stroke-width="1.51"/><path d="M1090,-61L992,-86L1131,83Z" fill="#7d7151" stroke="#7d7151" stroke-width="1.51"/><path d="M408,-151L378,-14L526,-19Z" fill="#094c68" stroke="#094c68" stroke-width="1.51"/><path d="M225,103L365,262L340,59Z" fill="#094c68" stroke="#094c68" stroke-width="1.51"/><path d="M225,103L196,201L365,262Z" fill="#094c68" stroke="#094c68" stroke-width="1.51"/><path d="M226,377L123,591L233,543Z" fill="#535e5d" stroke="#535e5d" stroke-width="1.51"/><path d="M825,975L1010,1010L938,850Z" fill="#c4962e" stroke="#c4962e" stroke-width="1.51"/><path d="M1000,1094L1010,1010L825,975Z" fill="#c7972c" stroke="#c7972c" stroke-width="1.51"/><path d="M1010,1010L1059,991L938,850Z" fill="#cd9b26" stroke="#cd9b26" stroke-width="1.51"/><path d="M1273,3L1090,-61L1131,83Z" fill="#89774d" stroke="#89774d" stroke-width="1.51"/><path d="M1293,259L1290,124L1109,260Z" fill="#8b784c" stroke="#8b784c" stroke-width="1.51"/><path d="M259,-12L225,103L340,59Z" fill="#094c68" stroke="#094c68" stroke-width="1.51"/><path d="M628,1026L634,1081L825,975Z" fill="#a9873f" stroke="#a9873f" stroke-width="1.51"/><path d="M572,1160L634,1081L628,1026Z" fill="#9f8244" stroke="#9f8244" stroke-width="1.51"/><path d="M416,1030L628,1026L477,947Z" fill="#927b49" stroke="#927b49" stroke-width="1.51"/><path d="M1215,818L1361,640L1229,668Z" fill="#d29d21" stroke="#d29d21" stroke-width="1.51"/><path d="M1293,259L1403,152L1290,124Z" fill="#8b784c" stroke="#8b784c" stroke-width="1.51"/><path d="M1393,418L1367,291L1270,419Z" fill="#9c8045" stroke="#9c8045" stroke-width="1.51"/><path d="M233,543L123,591L266,719Z" fill="#696757" stroke="#696757" stroke-width="1.51"/><path d="M42,353L123,591L226,377Z" fill="#455960" stroke="#455960" stroke-width="1.51"/><path d="M1388,593L1393,418L1270,419Z" fill="#ac893d" stroke="#ac893d" stroke-width="1.51"/><path d="M1361,640L1388,593L1208,500Z" fill="#bd9233" stroke="#bd9233" stroke-width="1.51"/><path d="M265,949L419,830L272,803Z" fill="#8b784c" stroke="#8b784c" stroke-width="1.51"/><path d="M265,949L477,947L419,830Z" fill="#8b784c" stroke="#8b784c" stroke-width="1.51"/><path d="M640,-85L522,-172L526,-19Z" fill="#305264" stroke="#305264" stroke-width="1.51"/><path d="M378,-14L259,-12L340,59Z" fill="#094c68" stroke="#094c68" stroke-width="1.51"/><path d="M632,-228L522,-172L640,-85Z" fill="#375463" stroke="#375463" stroke-width="1.51"/><path d="M992,-86L826,-212L863,-27Z" fill="#666658" stroke="#666658" stroke-width="1.51"/><path d="M996,-192L826,-212L992,-86Z" fill="#6c6957" stroke="#6c6957" stroke-width="1.51"/><path d="M408,-151L259,-12L378,-14Z" fill="#094c68" stroke="#094c68" stroke-width="1.51"/><path d="M82,78L57,285L196,201Z" fill="#094c68" stroke="#094c68" stroke-width="1.51"/><path d="M1010,1010L1091,1104L1059,991Z" fill="#d39e20" stroke="#d39e20" stroke-width="1.51"/><path d="M1059,991L1285,983L1215,818Z" fill="#e3a704" stroke="#e3a704" stroke-width="1.51"/><path d="M1215,818L1447,791L1361,640Z" fill="#d8a119" stroke="#d8a119" stroke-width="1.51"/><path d="M775,1155L1000,1094L825,975Z" fill="#bd9233" stroke="#bd9233" stroke-width="1.51"/><path d="M1090,-203L996,-192L992,-86Z" fill="#786e53" stroke="#786e53" stroke-width="1.51"/><path d="M1290,124L1273,3L1131,83Z" fill="#8b784c" stroke="#8b784c" stroke-width="1.51"/><path d="M1403,152L1273,3L1290,124Z" fill="#8b784c" stroke="#8b784c" stroke-width="1.51"/><path d="M100,949L265,949L272,803Z" fill="#8b784c" stroke="#8b784c" stroke-width="1.51"/><path d="M1090,-203L992,-86L1090,-61Z" fill="#7b7052" stroke="#7b7052" stroke-width="1.51"/><path d="M826,-212L632,-228L640,-85Z" fill="#495a60" stroke="#495a60" stroke-width="1.51"/><path d="M632,-228L408,-151L522,-172Z" fill="#265066" stroke="#265066" stroke-width="1.51"/><path d="M522,-172L408,-151L526,-19Z" fill="#1b4e67" stroke="#1b4e67" stroke-width="1.51"/><path d="M634,1081L775,1155L825,975Z" fill="#af8a3b" stroke="#af8a3b" stroke-width="1.51"/><path d="M715,1251L775,1155L634,1081Z" fill="#ab883e" stroke="#ab883e" stroke-width="1.51"/><path d="M82,78L196,201L225,103Z" fill="#094c68" stroke="#094c68" stroke-width="1.51"/><path d="M196,201L57,285L226,377Z" fill="#144d68" stroke="#144d68" stroke-width="1.51"/><path d="M57,285L42,353L226,377Z" fill="#2a5165" stroke="#2a5165" stroke-width="1.51"/><path d="M123,591L86,728L266,719Z" fill="#746c54" stroke="#746c54" stroke-width="1.51"/><path d="M-58,695L86,728L123,591Z" fill="#736c55" stroke="#736c55" stroke-width="1.51"/><path d="M1367,291L1403,152L1293,259Z" fill="#8b784c" stroke="#8b784c" stroke-width="1.51"/><path d="M1578,263L1403,152L1367,291Z" fill="#8b784c" stroke="#8b784c" stroke-width="1.51"/><path d="M1567,359L1367,291L1393,418Z" fill="#997f47" stroke="#997f47" stroke-width="1.51"/><path d="M416,1030L572,1160L628,1026Z" fill="#967d48" stroke="#967d48" stroke-width="1.51"/><path d="M345,1092L572,1160L416,1030Z" fill="#8b784c" stroke="#8b784c" stroke-width="1.51"/><path d="M1000,1094L1091,1104L1010,1010Z" fill="#d19d22" stroke="#d19d22" stroke-width="1.51"/><path d="M1087,1324L1091,1104L1000,1094Z" fill="#d49f1f" stroke="#d49f1f" stroke-width="1.51"/><path d="M1280,-204L1090,-203L1090,-61Z" fill="#87764d" stroke="#87764d" stroke-width="1.51"/><path d="M996,-192L1090,-203L826,-212Z" fill="#706a55" stroke="#706a55" stroke-width="1.51"/><path d="M826,-212L1090,-203L632,-228Z" fill="#60635a" stroke="#60635a" stroke-width="1.51"/><path d="M1230,1094L1285,983L1059,991Z" fill="#e3a704" stroke="#e3a704" stroke-width="1.51"/><path d="M1361,640L1568,724L1388,593Z" fill="#c9982a" stroke="#c9982a" stroke-width="1.51"/><path d="M265,949L345,1092L416,1030Z" fill="#8b784c" stroke="#8b784c" stroke-width="1.51"/><path d="M188,1116L345,1092L265,949Z" fill="#8b784c" stroke="#8b784c" stroke-width="1.51"/><path d="M259,-12L82,78L225,103Z" fill="#094c68" stroke="#094c68" stroke-width="1.51"/><path d="M57,285L-46,384L42,353Z" fill="#2a5165" stroke="#2a5165" stroke-width="1.51"/><path d="M82,-70L82,78L259,-12Z" fill="#094c68" stroke="#094c68" stroke-width="1.51"/><path d="M1388,593L1564,534L1393,418Z" fill="#b38d3a" stroke="#b38d3a" stroke-width="1.51"/><path d="M1405,962L1447,791L1215,818Z" fill="#e3a704" stroke="#e3a704" stroke-width="1.51"/><path d="M-58,695L62,816L86,728Z" fill="#807250" stroke="#807250" stroke-width="1.51"/><path d="M86,728L62,816L272,803Z" fill="#86754e" stroke="#86754e" stroke-width="1.51"/><path d="M775,1155L830,1286L1000,1094Z" fill="#be9233" stroke="#be9233" stroke-width="1.51"/><path d="M572,1160L715,1251L634,1081Z" fill="#a28442" stroke="#a28442" stroke-width="1.51"/><path d="M493,1260L715,1251L572,1160Z" fill="#9d8144" stroke="#9d8144" stroke-width="1.51"/><path d="M1285,983L1405,962L1215,818Z" fill="#e3a704" stroke="#e3a704" stroke-width="1.51"/><path d="M1091,1104L1230,1094L1059,991Z" fill="#dca314" stroke="#dca314" stroke-width="1.51"/><path d="M1216,1260L1230,1094L1091,1104Z" fill="#e2a606" stroke="#e2a606" stroke-width="1.51"/><path d="M42,353L-73,507L123,591Z" fill="#4f5c5e" stroke="#4f5c5e" stroke-width="1.51"/><path d="M-116,239L-46,384L57,285Z" fill="#1b4e67" stroke="#1b4e67" stroke-width="1.51"/><path d="M1568,724L1564,534L1388,593Z" fill="#c3952f" stroke="#c3952f" stroke-width="1.51"/><path d="M62,816L100,949L272,803Z" fill="#8b784c" stroke="#8b784c" stroke-width="1.51"/><path d="M1564,534L1567,359L1393,418Z" fill="#a68641" stroke="#a68641" stroke-width="1.51"/><path d="M-46,384L-73,507L42,353Z" fill="#3f5762" stroke="#3f5762" stroke-width="1.51"/><path d="M62,816L-88,837L100,949Z" fill="#8b784c" stroke="#8b784c" stroke-width="1.51"/><path d="M1447,791L1568,724L1361,640Z" fill="#d39e20" stroke="#d39e20" stroke-width="1.51"/><path d="M1409,1150L1405,962L1285,983Z" fill="#e3a704" stroke="#e3a704" stroke-width="1.51"/><path d="M715,1251L830,1286L775,1155Z" fill="#b38c3a" stroke="#b38c3a" stroke-width="1.51"/><path d="M1273,3L1280,-204L1090,-61Z" fill="#8b784c" stroke="#8b784c" stroke-width="1.51"/><path d="M1403,152L1380,-95L1273,3Z" fill="#8b784c" stroke="#8b784c" stroke-width="1.51"/><path d="M1566,78L1380,-95L1403,152Z" fill="#8b784c" stroke="#8b784c" stroke-width="1.51"/><path d="M-73,507L-58,695L123,591Z" fill="#656659" stroke="#656659" stroke-width="1.51"/><path d="M344,1283L493,1260L345,1092Z" fill="#8b784c" stroke="#8b784c" stroke-width="1.51"/><path d="M345,1092L493,1260L572,1160Z" fill="#8e794b" stroke="#8e794b" stroke-width="1.51"/><path d="M715,1251L493,1260L830,1286Z" fill="#a78640" stroke="#a78640" stroke-width="1.51"/><path d="M1380,-95L1280,-204L1273,3Z" fill="#8b784c" stroke="#8b784c" stroke-width="1.51"/><path d="M1090,-203L1280,-204L632,-228Z" fill="#746c54" stroke="#746c54" stroke-width="1.51"/><path d="M1567,359L1578,263L1367,291Z" fill="#907a4a" stroke="#907a4a" stroke-width="1.51"/><path d="M1648,385L1578,263L1567,359Z" fill="#957d48" stroke="#957d48" stroke-width="1.51"/><path d="M82,78L-45,72L57,285Z" fill="#094c68" stroke="#094c68" stroke-width="1.51"/><path d="M182,-177L82,-70L259,-12Z" fill="#094c68" stroke="#094c68" stroke-width="1.51"/><path d="M182,-177L259,-12L408,-151Z" fill="#094c68" stroke="#094c68" stroke-width="1.51"/><path d="M632,-228L182,-177L408,-151Z" fill="#094c68" stroke="#094c68" stroke-width="1.51"/><path d="M1546,786L1568,724L1447,791Z" fill="#dba315" stroke="#dba315" stroke-width="1.51"/><path d="M1564,534L1648,385L1567,359Z" fill="#a48541" stroke="#a48541" stroke-width="1.51"/><path d="M1505,973L1546,786L1447,791Z" fill="#e3a704" stroke="#e3a704" stroke-width="1.51"/><path d="M100,949L188,1116L265,949Z" fill="#8b784c" stroke="#8b784c" stroke-width="1.51"/><path d="M34,1113L188,1116L100,949Z" fill="#8b784c" stroke="#8b784c" stroke-width="1.51"/><path d="M82,-70L-45,72L82,78Z" fill="#094c68" stroke="#094c68" stroke-width="1.51"/><path d="M-46,384L-200,381L-73,507Z" fill="#425861" stroke="#425861" stroke-width="1.51"/><path d="M493,1260L946,1326L830,1286Z" fill="#b08b3b" stroke="#b08b3b" stroke-width="1.51"/><path d="M830,1286L946,1326L1000,1094Z" fill="#c5962e" stroke="#c5962e" stroke-width="1.51"/><path d="M1499,1093L1505,973L1405,962Z" fill="#e3a704" stroke="#e3a704" stroke-width="1.51"/><path d="M-45,72L-116,239L57,285Z" fill="#094c68" stroke="#094c68" stroke-width="1.51"/><path d="M-240,729L-88,837L-58,695Z" fill="#817250" stroke="#817250" stroke-width="1.51"/><path d="M1578,263L1566,78L1403,152Z" fill="#8b784c" stroke="#8b784c" stroke-width="1.51"/><path d="M1380,-95L1437,-152L1280,-204Z" fill="#8b784c" stroke="#8b784c" stroke-width="1.51"/><path d="M1713,589L1648,385L1564,534Z" fill="#b18b3a" stroke="#b18b3a" stroke-width="1.51"/><path d="M1578,263L1664,73L1566,78Z" fill="#8b784c" stroke="#8b784c" stroke-width="1.51"/><path d="M182,-177L68,-143L82,-70Z" fill="#094c68" stroke="#094c68" stroke-width="1.51"/><path d="M82,-70L-100,-93L-45,72Z" fill="#094c68" stroke="#094c68" stroke-width="1.51"/><path d="M1409,1150L1285,983L1230,1094Z" fill="#e3a704" stroke="#e3a704" stroke-width="1.51"/><path d="M1405,962L1505,973L1447,791Z" fill="#e3a704" stroke="#e3a704" stroke-width="1.51"/><path d="M1718,718L1713,589L1568,724Z" fill="#cd9b27" stroke="#cd9b27" stroke-width="1.51"/><path d="M493,1260L344,1283L946,1326Z" fill="#9d8144" stroke="#9d8144" stroke-width="1.51"/><path d="M188,1116L271,1235L345,1092Z" fill="#8b784c" stroke="#8b784c" stroke-width="1.51"/><path d="M1575,-61L1437,-152L1380,-95Z" fill="#8b784c" stroke="#8b784c" stroke-width="1.51"/><path d="M271,1235L344,1283L345,1092Z" fill="#8b784c" stroke="#8b784c" stroke-width="1.51"/><path d="M188,1116L123,1257L271,1235Z" fill="#8b784c" stroke="#8b784c" stroke-width="1.51"/><path d="M-58,695L-88,837L62,816Z" fill="#86754e" stroke="#86754e" stroke-width="1.51"/><path d="M-227,585L-58,695L-73,507Z" fill="#656559" stroke="#656559" stroke-width="1.51"/><path d="M1087,1324L1216,1260L1091,1104Z" fill="#dda313" stroke="#dda313" stroke-width="1.51"/><path d="M946,1326L1087,1324L1000,1094Z" fill="#ce9b25" stroke="#ce9b25" stroke-width="1.51"/><path d="M-116,239L-200,381L-46,384Z" fill="#285066" stroke="#285066" stroke-width="1.51"/><path d="M-226,275L-200,381L-116,239Z" fill="#194e67" stroke="#194e67" stroke-width="1.51"/><path d="M1376,1242L1409,1150L1230,1094Z" fill="#e3a704" stroke="#e3a704" stroke-width="1.51"/><path d="M1566,78L1575,-61L1380,-95Z" fill="#8b784c" stroke="#8b784c" stroke-width="1.51"/><path d="M1648,385L1695,273L1578,263Z" fill="#907a4a" stroke="#907a4a" stroke-width="1.51"/><path d="M1866,410L1695,273L1648,385Z" fill="#997f47" stroke="#997f47" stroke-width="1.51"/><path d="M1713,589L1564,534L1568,724Z" fill="#c3952f" stroke="#c3952f" stroke-width="1.51"/><path d="M1678,821L1568,724L1546,786Z" fill="#dda313" stroke="#dda313" stroke-width="1.51"/><path d="M-79,1004L34,1113L100,949Z" fill="#8b784c" stroke="#8b784c" stroke-width="1.51"/><path d="M271,1235L123,1257L344,1283Z" fill="#8b784c" stroke="#8b784c" stroke-width="1.51"/><path d="M1667,-32L1575,-61L1566,78Z" fill="#8b784c" stroke="#8b784c" stroke-width="1.51"/><path d="M1505,973L1678,821L1546,786Z" fill="#e3a704" stroke="#e3a704" stroke-width="1.51"/><path d="M1409,1150L1499,1093L1405,962Z" fill="#e3a704" stroke="#e3a704" stroke-width="1.51"/><path d="M-200,381L-227,585L-73,507Z" fill="#505d5e" stroke="#505d5e" stroke-width="1.51"/><path d="M-88,837L-79,1004L100,949Z" fill="#8b784c" stroke="#8b784c" stroke-width="1.51"/><path d="M1695,273L1664,73L1578,263Z" fill="#8b784c" stroke="#8b784c" stroke-width="1.51"/><path d="M-200,381L-226,275L-227,585Z" fill="#3f5762" stroke="#3f5762" stroke-width="1.51"/><path d="M-217,115L-226,275L-116,239Z" fill="#094c68" stroke="#094c68" stroke-width="1.51"/><path d="M-217,115L-116,239L-45,72Z" fill="#094c68" stroke="#094c68" stroke-width="1.51"/><path d="M-195,880L-79,1004L-88,837Z" fill="#8b784c" stroke="#8b784c" stroke-width="1.51"/><path d="M1730,960L1678,821L1505,973Z" fill="#e3a704" stroke="#e3a704" stroke-width="1.51"/><path d="M1678,821L1718,718L1568,724Z" fill="#d9a119" stroke="#d9a119" stroke-width="1.51"/><path d="M1409,1150L1570,1288L1499,1093Z" fill="#e3a704" stroke="#e3a704" stroke-width="1.51"/><path d="M1216,1260L1376,1242L1230,1094Z" fill="#e3a704" stroke="#e3a704" stroke-width="1.51"/><path d="M1087,1324L1376,1242L1216,1260Z" fill="#e3a704" stroke="#e3a704" stroke-width="1.51"/><path d="M68,-143L-100,-93L82,-70Z" fill="#094c68" stroke="#094c68" stroke-width="1.51"/><path d="M-43,-207L-100,-93L68,-143Z" fill="#094c68" stroke="#094c68" stroke-width="1.51"/><path d="M-19,1144L123,1257L34,1113Z" fill="#8b784c" stroke="#8b784c" stroke-width="1.51"/><path d="M34,1113L123,1257L188,1116Z" fill="#8b784c" stroke="#8b784c" stroke-width="1.51"/><path d="M1659,-202L1526,-205L1575,-61Z" fill="#8b784c" stroke="#8b784c" stroke-width="1.51"/><path d="M1575,-61L1526,-205L1437,-152Z" fill="#8b784c" stroke="#8b784c" stroke-width="1.51"/><path d="M1437,-152L1526,-205L1280,-204Z" fill="#8b784c" stroke="#8b784c" stroke-width="1.51"/><path d="M1280,-204L1526,-205L632,-228Z" fill="#86754e" stroke="#86754e" stroke-width="1.51"/><path d="M-194,-68L-217,115L-45,72Z" fill="#094c68" stroke="#094c68" stroke-width="1.51"/><path d="M-227,585L-240,729L-58,695Z" fill="#726b54" stroke="#726b54" stroke-width="1.51"/><path d="M-226,275L-240,729L-227,585Z" fill="#58605c" stroke="#58605c" stroke-width="1.51"/><path d="M-79,1004L-19,1144L34,1113Z" fill="#8b784c" stroke="#8b784c" stroke-width="1.51"/><path d="M-177,1177L-19,1144L-79,1004Z" fill="#8b784c" stroke="#8b784c" stroke-width="1.51"/><path d="M-100,-93L-194,-68L-45,72Z" fill="#094c68" stroke="#094c68" stroke-width="1.51"/><path d="M182,-177L-43,-207L68,-143Z" fill="#094c68" stroke="#094c68" stroke-width="1.51"/><path d="M632,-228L-43,-207L182,-177Z" fill="#094c68" stroke="#094c68" stroke-width="1.51"/><path d="M-240,729L-195,880L-88,837Z" fill="#8b784c" stroke="#8b784c" stroke-width="1.51"/><path d="M1664,73L1667,-32L1566,78Z" fill="#8b784c" stroke="#8b784c" stroke-width="1.51"/><path d="M1820,-42L1667,-32L1664,73Z" fill="#8b784c" stroke="#8b784c" stroke-width="1.51"/><path d="M-172,-154L-194,-68L-100,-93Z" fill="#094c68" stroke="#094c68" stroke-width="1.51"/><path d="M1853,833L1876,725L1718,718Z" fill="#daa217" stroke="#daa217" stroke-width="1.51"/><path d="M1876,725L1859,556L1713,589Z" fill="#c4962e" stroke="#c4962e" stroke-width="1.51"/><path d="M1499,1093L1730,960L1505,973Z" fill="#e3a704" stroke="#e3a704" stroke-width="1.51"/><path d="M1735,1123L1730,960L1499,1093Z" fill="#e3a704" stroke="#e3a704" stroke-width="1.51"/><path d="M-195,880L-202,1013L-79,1004Z" fill="#8b784c" stroke="#8b784c" stroke-width="1.51"/><path d="M-19,1144L-61,1319L123,1257Z" fill="#8b784c" stroke="#8b784c" stroke-width="1.51"/><path d="M-240,729L-202,1013L-195,880Z" fill="#8b784c" stroke="#8b784c" stroke-width="1.51"/><path d="M-43,-207L-172,-154L-100,-93Z" fill="#094c68" stroke="#094c68" stroke-width="1.51"/><path d="M1713,589L1866,410L1648,385Z" fill="#aa883e" stroke="#aa883e" stroke-width="1.51"/><path d="M1695,273L1840,211L1664,73Z" fill="#8b784c" stroke="#8b784c" stroke-width="1.51"/><path d="M1876,725L1713,589L1718,718Z" fill="#cd9b27" stroke="#cd9b27" stroke-width="1.51"/><path d="M1859,556L1866,410L1713,589Z" fill="#b38d39" stroke="#b38d39" stroke-width="1.51"/><path d="M1866,410L1840,211L1695,273Z" fill="#8f7a4a" stroke="#8f7a4a" stroke-width="1.51"/><path d="M1820,-42L1659,-202L1667,-32Z" fill="#8b784c" stroke="#8b784c" stroke-width="1.51"/><path d="M1667,-32L1659,-202L1575,-61Z" fill="#8b784c" stroke="#8b784c" stroke-width="1.51"/><path d="M1526,-205L1659,-202L632,-228Z" fill="#8b784c" stroke="#8b784c" stroke-width="1.51"/><path d="M1853,833L1718,718L1678,821Z" fill="#dfa50e" stroke="#dfa50e" stroke-width="1.51"/><path d="M1859,556L1876,725L1866,410Z" fill="#bb9134" stroke="#bb9134" stroke-width="1.51"/><path d="M1730,960L1853,833L1678,821Z" fill="#e3a704" stroke="#e3a704" stroke-width="1.51"/><path d="M1376,1242L1570,1288L1409,1150Z" fill="#e3a704" stroke="#e3a704" stroke-width="1.51"/><path d="M1730,960L1860,968L1853,833Z" fill="#e3a704" stroke="#e3a704" stroke-width="1.51"/><path d="M1087,1324L1570,1288L1376,1242Z" fill="#e3a704" stroke="#e3a704" stroke-width="1.51"/><path d="M-202,1013L-177,1177L-79,1004Z" fill="#8b784c" stroke="#8b784c" stroke-width="1.51"/><path d="M1876,94L1820,-42L1664,73Z" fill="#8b784c" stroke="#8b784c" stroke-width="1.51"/><path d="M1876,94L1664,73L1840,211Z" fill="#8b784c" stroke="#8b784c" stroke-width="1.51"/><path d="M1876,725L1876,94L1866,410Z" fill="#a18342" stroke="#a18342" stroke-width="1.51"/><path d="M1866,410L1876,94L1840,211Z" fill="#8b784c" stroke="#8b784c" stroke-width="1.51"/><path d="M-177,1177L-61,1319L-19,1144Z" fill="#8b784c" stroke="#8b784c" stroke-width="1.51"/><path d="M123,1257L-61,1319L344,1283Z" fill="#8b784c" stroke="#8b784c" stroke-width="1.51"/><path d="M344,1283L-61,1319L946,1326Z" fill="#8b784c" stroke="#8b784c" stroke-width="1.51"/><path d="M1674,1271L1735,1123L1499,1093Z" fill="#e3a704" stroke="#e3a704" stroke-width="1.51"/><path d="M1735,1123L1860,968L1730,960Z" fill="#e3a704" stroke="#e3a704" stroke-width="1.51"/><path d="M1853,833L1860,968L1876,725Z" fill="#e3a704" stroke="#e3a704" stroke-width="1.51"/><path d="M1570,1288L1674,1271L1499,1093Z" fill="#e3a704" stroke="#e3a704" stroke-width="1.51"/><path d="M1735,1123L1847,1166L1860,968Z" fill="#e3a704" stroke="#e3a704" stroke-width="1.51"/><path d="M-177,1177L-240,1274L-61,1319Z" fill="#8b784c" stroke="#8b784c" stroke-width="1.51"/><path d="M-202,1013L-240,1274L-177,1177Z" fill="#8b784c" stroke="#8b784c" stroke-width="1.51"/><path d="M-240,729L-240,1274L-202,1013Z" fill="#8b784c" stroke="#8b784c" stroke-width="1.51"/><path d="M1876,94L1866,-194L1820,-42Z" fill="#8b784c" stroke="#8b784c" stroke-width="1.51"/><path d="M1820,-42L1866,-194L1659,-202Z" fill="#8b784c" stroke="#8b784c" stroke-width="1.51"/><path d="M1805,1263L1847,1166L1735,1123Z" fill="#e3a704" stroke="#e3a704" stroke-width="1.51"/><path d="M1860,968L1847,1166L1876,725Z" fill="#e3a704" stroke="#e3a704" stroke-width="1.51"/><path d="M1570,1288L1805,1263L1674,1271Z" fill="#e3a704" stroke="#e3a704" stroke-width="1.51"/><path d="M1674,1271L1805,1263L1735,1123Z" fill="#e3a704" stroke="#e3a704" stroke-width="1.51"/></svg>